# xmcd CD database file
#
# Track frame offsets:
#	150
#	13496
#	49945
#	75029
#	91527
#	111827
#	130200
#	136724
#	141913
#	162241
#	185592
#
# Disc length: 2653 seconds
#
# Revision: 0
# Processed by: cddbd v1.5.1PL0 Copyright (c) Steve Scherf et al.
# Submitted via: CDex 1.51
#
DISCID=880a5b0b
DTITLE=Circle B.z.B.  - Recreation
DYEAR=1900
DGENRE=
TTITLE0=story of undersea
TTITLE1=Gladiator - Core mix -
TTITLE2=The Frontier - Long ver.-
TTITLE3=late struggle
TTITLE4=Waterfront
TTITLE5=ghettrek funky
TTITLE6=Doze control
TTITLE7=Chaaaaaaaaaase!!!!
TTITLE8=plastics
TTITLE9=F - L - Y
TTITLE10=Traveler
EXTD=
EXTT0=
EXTT1=
EXTT2=
EXTT3=
EXTT4=
EXTT5=
EXTT6=
EXTT7=
EXTT8=
EXTT9=
EXTT10=
PLAYORDER=
